<?xml version="1.0" encoding="utf-8"?>
<!-- Generator: Adobe Illustrator 24.0.2, SVG Export Plug-In . SVG Version: 6.00 Build 0)  -->
<svg version="1.1" xmlns="http://www.w3.org/2000/svg" xmlns:xlink="http://www.w3.org/1999/xlink" x="0px" y="0px"
	 viewBox="0 0 2000 500" style="enable-background:new 0 0 2000 500;" xml:space="preserve">
<style type="text/css">
	.st0{fill:url(#SVGID_1_);}
	.st1{fill:url(#SVGID_2_);}
	.st2{fill:url(#SVGID_3_);}
	.st3{fill:url(#SVGID_4_);}
	.st4{fill:url(#SVGID_5_);}
	.st5{fill:url(#SVGID_6_);}
	.st6{fill:url(#SVGID_7_);}
	.st7{enable-background:new    ;}
	.st8{fill:url(#SVGID_8_);}
	.st9{fill:url(#SVGID_9_);}
	.st10{fill:url(#SVGID_10_);}
	.st11{fill:url(#SVGID_11_);}
	.st12{fill:url(#SVGID_12_);}
	.st13{fill:url(#SVGID_13_);}
	.st14{fill:#F15A24;}
	.st15{fill:url(#SVGID_14_);}
	.st16{fill:url(#SVGID_15_);}
	.st17{fill:url(#SVGID_16_);}
	.st18{fill:url(#SVGID_17_);}
	.st19{fill:url(#SVGID_18_);}
</style>
<g id="Logo">
	
		<linearGradient id="SVGID_1_" gradientUnits="userSpaceOnUse" x1="8.5" y1="419.4" x2="304.2" y2="419.4" gradientTransform="matrix(1 0 0 -1 0 504)">
		<stop  offset="3.836254e-03" style="stop-color:#00B800"/>
		<stop  offset="0.1479" style="stop-color:#09BD07"/>
		<stop  offset="0.3874" style="stop-color:#23CB1A"/>
		<stop  offset="0.6909" style="stop-color:#4CE238"/>
		<stop  offset="0.9944" style="stop-color:#7CFD5C"/>
	</linearGradient>
	<polygon class="st0" points="65.4,36 304.2,36 247.4,133.2 8.5,133.2 	"/>
	
		<linearGradient id="SVGID_2_" gradientUnits="userSpaceOnUse" x1="62.3699" y1="377.8946" x2="117.5593" y2="282.3036" gradientTransform="matrix(1 0 0 -1 0 504)">
		<stop  offset="0" style="stop-color:#0063A4"/>
		<stop  offset="1" style="stop-color:#54C0E7"/>
	</linearGradient>
	<polygon class="st1" points="185.4,238.8 128.2,336.1 8.5,133.2 123.1,133.2 	"/>
	
		<linearGradient id="SVGID_3_" gradientUnits="userSpaceOnUse" x1="68.35" y1="161.2128" x2="68.35" y2="267.6022" gradientTransform="matrix(1 0 0 -1 0 504)">
		<stop  offset="0" style="stop-color:#00D100"/>
		<stop  offset="1" style="stop-color:#006900"/>
	</linearGradient>
	<polygon class="st2" points="123.6,344.2 8.5,344.2 70.8,238.8 128.2,336.1 	"/>
	
		<linearGradient id="SVGID_4_" gradientUnits="userSpaceOnUse" x1="8.5" y1="111.2" x2="304.5" y2="111.2" gradientTransform="matrix(1 0 0 -1 0 504)">
		<stop  offset="0" style="stop-color:#00A1FF"/>
		<stop  offset="1" style="stop-color:#56D2FF"/>
	</linearGradient>
	<polygon class="st3" points="304.5,441.4 66.2,441.4 8.5,344.2 247.6,344.2 	"/>
	
		<linearGradient id="SVGID_5_" gradientUnits="userSpaceOnUse" x1="262.495" y1="86.8516" x2="351.5233" y2="241.0533" gradientTransform="matrix(1 0 0 -1 0 504)">
		<stop  offset="0" style="stop-color:#00C900"/>
		<stop  offset="1" style="stop-color:#005600"/>
	</linearGradient>
	<polygon class="st4" points="304.5,441.4 247.6,344.2 309.7,238.8 366.3,336.1 	"/>
	
		<linearGradient id="SVGID_6_" gradientUnits="userSpaceOnUse" x1="381.998" y1="289.1034" x2="499.6631" y2="492.9051" gradientTransform="matrix(1 0 0 -1 0 504)">
		<stop  offset="0" style="stop-color:#006200"/>
		<stop  offset="1" style="stop-color:#00F136"/>
	</linearGradient>
	<polygon class="st5" points="423.4,238.8 366.8,141.6 428.5,36 542.8,36 	"/>
	
		<linearGradient id="SVGID_7_" gradientUnits="userSpaceOnUse" x1="266.1355" y1="440.0731" x2="483.2474" y2="64.0241" gradientTransform="matrix(1 0 0 -1 0 504)">
		<stop  offset="0" style="stop-color:#00749B"/>
		<stop  offset="0.4721" style="stop-color:#65D1FB"/>
		<stop  offset="1" style="stop-color:#00A7FF"/>
	</linearGradient>
	<polygon class="st6" points="542.8,441.4 428.5,441.4 247.4,133.2 304.2,36 	"/>
</g>
<g id="Letras">
	<g id="Online" class="st7">
		
			<linearGradient id="SVGID_8_" gradientUnits="userSpaceOnUse" x1="1392.4" y1="262.6" x2="1496.5" y2="262.6" gradientTransform="matrix(1 0 0 -1 0 502)">
			<stop  offset="0" style="stop-color:#FFFFFF"/>
			<stop  offset="1" style="stop-color:#FFFFFF"/>
		</linearGradient>
		<path class="st8" d="M1392.4,240c0-10.9,1.6-20.1,4.9-27.5c2.4-5.5,5.8-10.4,10-14.7s8.8-7.6,13.9-9.7c6.7-2.8,14.4-4.2,23.1-4.2
			c15.8,0,28.5,4.9,38,14.7s14.2,23.5,14.2,40.9c0,17.3-4.7,30.9-14.1,40.7c-9.4,9.8-22,14.7-37.8,14.7c-16,0-28.7-4.9-38.1-14.6
			C1397.1,270.5,1392.4,257.1,1392.4,240z M1414.7,239.3c0,12.2,2.8,21.4,8.4,27.6c5.6,6.3,12.7,9.4,21.4,9.4s15.7-3.1,21.3-9.3
			c5.5-6.2,8.3-15.6,8.3-28c0-12.3-2.7-21.5-8.1-27.5c-5.4-6.1-12.6-9.1-21.5-9.1s-16.1,3.1-21.6,9.2
			C1417.4,217.7,1414.7,227,1414.7,239.3z"/>
		
			<linearGradient id="SVGID_9_" gradientUnits="userSpaceOnUse" x1="1511" y1="262.5" x2="1596" y2="262.5" gradientTransform="matrix(1 0 0 -1 0 502)">
			<stop  offset="0" style="stop-color:#FFFFFF"/>
			<stop  offset="1" style="stop-color:#FFFFFF"/>
		</linearGradient>
		<path class="st9" d="M1511,293V186h21.4l43.6,71.5V186h20v107h-22l-43-69.8V293H1511z"/>
		
			<linearGradient id="SVGID_10_" gradientUnits="userSpaceOnUse" x1="1616" y1="262" x2="1692" y2="262" gradientTransform="matrix(1 0 0 -1 0 502)">
			<stop  offset="0" style="stop-color:#FFFFFF"/>
			<stop  offset="1" style="stop-color:#FFFFFF"/>
		</linearGradient>
		<path class="st10" d="M1616,293V187h22v88h54v18H1616z"/>
		
			<linearGradient id="SVGID_11_" gradientUnits="userSpaceOnUse" x1="1704" y1="262.5" x2="1726" y2="262.5" gradientTransform="matrix(1 0 0 -1 0 502)">
			<stop  offset="0" style="stop-color:#FFFFFF"/>
			<stop  offset="1" style="stop-color:#FFFFFF"/>
		</linearGradient>
		<path class="st11" d="M1704,293V186h22v107H1704z"/>
		
			<linearGradient id="SVGID_12_" gradientUnits="userSpaceOnUse" x1="1743" y1="262.5" x2="1828" y2="262.5" gradientTransform="matrix(1 0 0 -1 0 502)">
			<stop  offset="0" style="stop-color:#FFFFFF"/>
			<stop  offset="1" style="stop-color:#FFFFFF"/>
		</linearGradient>
		<path class="st12" d="M1743,293V186h21.4l43.6,71.5V186h20v107h-22l-43-69.8V293H1743z"/>
		
			<linearGradient id="SVGID_13_" gradientUnits="userSpaceOnUse" x1="1848" y1="262.5" x2="1930" y2="262.5" gradientTransform="matrix(1 0 0 -1 0 502)">
			<stop  offset="0" style="stop-color:#FFFFFF"/>
			<stop  offset="1" style="stop-color:#FFFFFF"/>
		</linearGradient>
		<path class="st13" d="M1848,293V186h80v18h-58v24h54v18h-54v29h60v18H1848z"/>
		<circle class="st14" cx="1397.5" cy="276.5" r="26.5"/>
	</g>
	<g id="Elementx">
		
			<linearGradient id="SVGID_14_" gradientUnits="userSpaceOnUse" x1="485.8" y1="263.3" x2="1371" y2="263.3" gradientTransform="matrix(1 0 0 -1 0 502)">
			<stop  offset="0" style="stop-color:#FFFFFF"/>
			<stop  offset="1" style="stop-color:#FFFFFF"/>
		</linearGradient>
		<polygon class="st15" points="485.8,156 485.8,195 571.9,195 571.9,283.8 485.8,283.8 485.8,321.4 780.8,321.4 823.3,321.4 
			864.7,321.4 884.6,265.7 904.6,321.4 1061.4,321.4 1061.4,244.8 1143,321.4 1143,195.4 1163.8,195.4 1163.8,321.4 1202.4,321.4 
			1202.4,195.4 1233.2,195.9 1233.2,173.2 1273.6,238.5 1221.4,321.4 1267.7,321.4 1296.2,275.7 1325.2,321.4 1371,321.4 
			1319.8,238.9 1371,156 1324.8,156 1296.2,200.9 1269,156 1104.9,156 1104,233.5 1030.6,163.3 1030.6,156 936.3,156 935.9,195.4 
			1022,195.9 1022,283.8 932.2,283.4 884.6,156 823.5,321.4 780.8,321.4 820.7,210.4 800.8,156 753.6,283.4 611.3,283.4 610.9,156 
					"/>
		
			<linearGradient id="SVGID_15_" gradientUnits="userSpaceOnUse" x1="935.9" y1="261.45" x2="1015.7" y2="261.45" gradientTransform="matrix(1 0 0 -1 0 502)">
			<stop  offset="0" style="stop-color:#FFFFFF"/>
			<stop  offset="1" style="stop-color:#FFFFFF"/>
		</linearGradient>
		<rect x="935.9" y="221.3" class="st16" width="79.8" height="38.5"/>
		
			<linearGradient id="SVGID_16_" gradientUnits="userSpaceOnUse" x1="654.4" y1="326.5" x2="749.1" y2="326.5" gradientTransform="matrix(1 0 0 -1 0 502)">
			<stop  offset="0" style="stop-color:#FFFFFF"/>
			<stop  offset="1" style="stop-color:#FFFFFF"/>
		</linearGradient>
		<rect x="654.4" y="156" class="st17" width="94.7" height="39"/>
		
			<linearGradient id="SVGID_17_" gradientUnits="userSpaceOnUse" x1="654.4" y1="261.95" x2="734.6" y2="261.95" gradientTransform="matrix(1 0 0 -1 0 502)">
			<stop  offset="0" style="stop-color:#FFFFFF"/>
			<stop  offset="1" style="stop-color:#FFFFFF"/>
		</linearGradient>
		<rect x="654.4" y="220.8" class="st18" width="80.2" height="38.5"/>
		
			<linearGradient id="SVGID_18_" gradientUnits="userSpaceOnUse" x1="485.8" y1="262.35" x2="566" y2="262.35" gradientTransform="matrix(1 0 0 -1 0 502)">
			<stop  offset="0" style="stop-color:#FFFFFF"/>
			<stop  offset="1" style="stop-color:#FFFFFF"/>
		</linearGradient>
		<rect x="485.8" y="220.4" class="st19" width="80.2" height="38.5"/>
	</g>
</g>
</svg>
