<?xml version="1.0" encoding="utf-8"?>
<!-- Generator: Adobe Illustrator 24.0.2, SVG Export Plug-In . SVG Version: 6.00 Build 0)  -->
<svg version="1.1" id="Letras" xmlns="http://www.w3.org/2000/svg" xmlns:xlink="http://www.w3.org/1999/xlink" x="0px" y="0px"
	 viewBox="0 0 2000 500" style="enable-background:new 0 0 2000 500;" xml:space="preserve">
<style type="text/css">
	.st0{enable-background:new    ;}
	.st1{fill:url(#SVGID_1_);}
	.st2{fill:url(#SVGID_2_);}
	.st3{fill:url(#SVGID_3_);}
	.st4{fill:url(#SVGID_4_);}
	.st5{fill:url(#SVGID_5_);}
	.st6{fill:url(#SVGID_6_);}
	.st7{fill:#F15A24;}
	.st8{fill:url(#SVGID_7_);}
	.st9{fill:url(#SVGID_8_);}
	.st10{fill:url(#SVGID_9_);}
	.st11{fill:url(#SVGID_10_);}
	.st12{fill:url(#SVGID_11_);}
</style>
<g id="Online_2_" class="st0">
	
		<linearGradient id="SVGID_1_" gradientUnits="userSpaceOnUse" x1="1264.9216" y1="251.0428" x2="1407.261" y2="251.0428" gradientTransform="matrix(1 0 0 -1 0 502)">
		<stop  offset="0" style="stop-color:#FFFFFF"/>
		<stop  offset="1" style="stop-color:#FFFFFF"/>
	</linearGradient>
	<path class="st1" d="M1264.9,251.8c0-14.9,2.2-27.5,6.7-37.6c3.3-7.5,7.9-14.2,13.7-20.1c5.7-5.9,12-10.4,19-13.3
		c9.2-3.8,19.7-5.7,31.6-5.7c21.6,0,39,6.7,52,20.1s19.4,32.1,19.4,55.9c0,23.7-6.4,42.3-19.3,55.7c-12.9,13.4-30.1,20.1-51.7,20.1
		c-21.9,0-39.2-6.7-52.1-20C1271.3,293.5,1264.9,275.2,1264.9,251.8z M1295.4,250.8c0,16.7,3.8,29.3,11.5,37.7
		c7.7,8.6,17.4,12.9,29.3,12.9c11.9,0,21.5-4.2,29.1-12.7c7.5-8.5,11.3-21.3,11.3-38.3c0-16.8-3.7-29.4-11.1-37.6
		c-7.4-8.3-17.2-12.4-29.4-12.4s-22,4.2-29.5,12.6C1299.1,221.3,1295.4,234,1295.4,250.8z"/>
	
		<linearGradient id="SVGID_2_" gradientUnits="userSpaceOnUse" x1="1427.0874" y1="250.9061" x2="1543.3107" y2="250.9061" gradientTransform="matrix(1 0 0 -1 0 502)">
		<stop  offset="0" style="stop-color:#FFFFFF"/>
		<stop  offset="1" style="stop-color:#FFFFFF"/>
	</linearGradient>
	<path class="st2" d="M1427.1,324.2V177.9h29.3l59.6,97.8v-97.8h27.3v146.3h-30.1l-58.8-95.4v95.4H1427.1z"/>
	
		<linearGradient id="SVGID_3_" gradientUnits="userSpaceOnUse" x1="1570.6573" y1="250.2225" x2="1674.5747" y2="250.2225" gradientTransform="matrix(1 0 0 -1 0 502)">
		<stop  offset="0" style="stop-color:#FFFFFF"/>
		<stop  offset="1" style="stop-color:#FFFFFF"/>
	</linearGradient>
	<path class="st3" d="M1570.7,324.2V179.3h30.1v120.3h73.8v24.6H1570.7z"/>
	
		<linearGradient id="SVGID_4_" gradientUnits="userSpaceOnUse" x1="1690.9827" y1="250.9061" x2="1721.064" y2="250.9061" gradientTransform="matrix(1 0 0 -1 0 502)">
		<stop  offset="0" style="stop-color:#FFFFFF"/>
		<stop  offset="1" style="stop-color:#FFFFFF"/>
	</linearGradient>
	<path class="st4" d="M1691,324.2V177.9h30.1v146.3H1691z"/>
	
		<linearGradient id="SVGID_5_" gradientUnits="userSpaceOnUse" x1="1744.3087" y1="250.9061" x2="1860.532" y2="250.9061" gradientTransform="matrix(1 0 0 -1 0 502)">
		<stop  offset="0" style="stop-color:#FFFFFF"/>
		<stop  offset="1" style="stop-color:#FFFFFF"/>
	</linearGradient>
	<path class="st5" d="M1744.3,324.2V177.9h29.3l59.6,97.8v-97.8h27.3v146.3h-30.1l-58.8-95.4v95.4H1744.3z"/>
	
		<linearGradient id="SVGID_6_" gradientUnits="userSpaceOnUse" x1="1887.8787" y1="250.9061" x2="2000" y2="250.9061" gradientTransform="matrix(1 0 0 -1 0 502)">
		<stop  offset="0" style="stop-color:#FFFFFF"/>
		<stop  offset="1" style="stop-color:#FFFFFF"/>
	</linearGradient>
	<path class="st6" d="M1887.9,324.2V177.9h109.4v24.6H1918v32.8h73.8V260H1918v39.7h82v24.6H1887.9z"/>
	<circle class="st7" cx="1271.9" cy="301.7" r="36.2"/>
</g>
<g id="Elementx">
	
		<linearGradient id="SVGID_7_" gradientUnits="userSpaceOnUse" x1="25.2973" y1="252" x2="1235.6608" y2="252" gradientTransform="matrix(1 0 0 -1 0 502)">
		<stop  offset="0" style="stop-color:#FFFFFF"/>
		<stop  offset="1" style="stop-color:#FFFFFF"/>
	</linearGradient>
	<polygon class="st8" points="25.3,136.9 25.3,190.2 143,190.2 143,311.7 25.3,311.7 25.3,363.1 428.7,363.1 486.8,363.1 
		543.4,363.1 570.6,286.9 597.9,363.1 812.3,363.1 812.3,258.3 923.9,363.1 923.9,190.8 952.3,190.8 952.3,363.1 1005.1,363.1 
		1005.1,190.8 1047.2,191.5 1047.2,160.4 1102.5,249.7 1031.1,363.1 1094.4,363.1 1133.4,300.6 1173,363.1 1235.7,363.1 
		1165.7,250.3 1235.7,136.9 1172.5,136.9 1133.4,198.3 1096.2,136.9 871.8,136.9 870.6,242.9 770.2,146.9 770.2,136.9 641.3,136.9 
		640.7,190.8 758.5,191.5 758.5,311.7 635.7,311.1 570.6,136.9 487,363.1 428.7,363.1 483.2,211.3 456,136.9 391.5,311.1 
		196.9,311.1 196.4,136.9 	"/>
	
		<linearGradient id="SVGID_8_" gradientUnits="userSpaceOnUse" x1="640.7341" y1="249.4704" x2="749.8472" y2="249.4704" gradientTransform="matrix(1 0 0 -1 0 502)">
		<stop  offset="0" style="stop-color:#FFFFFF"/>
		<stop  offset="1" style="stop-color:#FFFFFF"/>
	</linearGradient>
	<rect x="640.7" y="226.2" class="st9" width="109.1" height="52.6"/>
	
		<linearGradient id="SVGID_9_" gradientUnits="userSpaceOnUse" x1="255.8297" y1="338.4155" x2="385.3162" y2="338.4155" gradientTransform="matrix(1 0 0 -1 0 502)">
		<stop  offset="0" style="stop-color:#FFFFFF"/>
		<stop  offset="1" style="stop-color:#FFFFFF"/>
	</linearGradient>
	<rect x="255.8" y="136.9" class="st10" width="129.5" height="53.3"/>
	
		<linearGradient id="SVGID_10_" gradientUnits="userSpaceOnUse" x1="255.8297" y1="250.1541" x2="365.4899" y2="250.1541" gradientTransform="matrix(1 0 0 -1 0 502)">
		<stop  offset="0" style="stop-color:#FFFFFF"/>
		<stop  offset="1" style="stop-color:#FFFFFF"/>
	</linearGradient>
	<rect x="255.8" y="225.5" class="st11" width="109.7" height="52.6"/>
	
		<linearGradient id="SVGID_11_" gradientUnits="userSpaceOnUse" x1="25.2973" y1="250.701" x2="134.9574" y2="250.701" gradientTransform="matrix(1 0 0 -1 0 502)">
		<stop  offset="0" style="stop-color:#FFFFFF"/>
		<stop  offset="1" style="stop-color:#FFFFFF"/>
	</linearGradient>
	<rect x="25.3" y="225" class="st12" width="109.7" height="52.6"/>
</g>
</svg>
